<?xml version="1.0" encoding="utf-8"?>
<svg xml:space="preserve" viewBox="0 0 100 100" y="0" x="0" xmlns="http://www.w3.org/2000/svg" id="Layer_1" version="1.1" width="109px" height="109px" style="height: 100%; width: 100%; background-color: rgb(34, 34, 34); shape-rendering: auto; background-position: initial initial; background-repeat: initial initial;"><g class="ldl-scale" style="transform-origin: 50% 50%; transform: scale(0.8);"><g class="ldl-ani"><g class="ldl-layer"><g class="ldl-ani"><g><g class="ldl-layer"><g class="ldl-ani" style="transform-origin: 50px 50px; opacity: 1; animation: fade-01dbdc03-8145-426c-9edb-c5097c5f0df2 2.127659574468085s linear -1.1264080100125156s infinite normal forwards;"><path fill="#c13d39" d="M45.502 27.51h8.996c0 5.868.003 11.735-.008 17.603-.001.323.085.397.401.397 13.363-.008 26.726-.007 40.09-.007v8.996c-13.363 0-26.726.001-40.09-.007-.316 0-.401.073-.401.397.011 5.868.008 11.735.008 17.603h-8.996c0-5.868-.003-11.735.008-17.603.001-.323-.085-.397-.401-.397-13.363.008-26.726.007-40.09.007v-8.996c13.363 0 26.726-.001 40.09.007.316 0 .401-.073.401-.397-.011-5.868-.008-11.736-.008-17.603z" style="fill: rgb(193, 61, 57);"></path></g></g><g class="ldl-layer"><g class="ldl-ani" style="transform-origin: 50px 50px; opacity: 1; animation: fade-01dbdc03-8145-426c-9edb-c5097c5f0df2 2.127659574468085s linear -1.1889862327909886s infinite normal forwards;"><path fill="#fff" d="M45.502 27.51c0 5.868-.003 11.735.008 17.603.001.323-.085.397-.401.397-13.363-.008-26.726-.007-40.09-.007v-3.022c.046.006.093.016.139.016 6.487.001 12.974.001 19.461-.001.057 0 .145.044.169-.066-.051-.029-.1-.059-.152-.084l-19.39-9.695c-.071-.036-.151-.053-.227-.079v-1.687c.117.051.237.098.351.155 7.516 3.758 15.031 7.516 22.546 11.277.223.111.442.189.7.188 1.991-.007 3.981-.004 5.972-.005.084 0 .178.026.281-.056-.125-.066-.223-.122-.324-.172-9.334-4.666-18.669-9.331-28.001-14.001-.489-.245-.996-.455-1.454-.758h10.05c.098.059.193.125.295.176l26.701 13.352c.36.18.361.18.361-.22l-.001-12.994c0-.105-.011-.21-.017-.314 1.008-.003 2.016-.003 3.023-.003z" style="fill: rgb(255, 255, 255);"></path></g></g><g class="ldl-layer"><g class="ldl-ani" style="transform-origin: 50px 50px; opacity: 1; animation: fade-01dbdc03-8145-426c-9edb-c5097c5f0df2 2.127659574468085s linear -1.2515644555694618s infinite normal forwards;"><path fill="#fff" d="M54.498 72.49c0-5.868.003-11.735-.008-17.603-.001-.323.085-.397.401-.397 13.363.008 26.726.007 40.09.007v3.022c-.081-.006-.163-.017-.244-.017-6.417-.001-12.835-.001-19.252.001-.086 0-.182-.035-.283.052.098.054.183.105.272.15 6.416 3.209 12.833 6.417 19.25 9.624.082.041.171.067.257.099v1.687c-.106-.047-.214-.091-.318-.143-7.525-3.763-15.049-7.526-22.573-11.291-.223-.111-.443-.187-.7-.186-1.99.007-3.981.004-5.971.005-.084 0-.179-.028-.282.056.122.065.221.12.322.171 9.71 4.855 19.42 9.709 29.129 14.565.112.056.244.084.324.195h-10.05c-.069-.105-.191-.127-.291-.177-8.906-4.456-17.813-8.909-26.72-13.361-.101-.05-.194-.132-.333-.121-.004.093-.012.185-.012.277v13.103c0 .093.011.186.017.279-1.01.003-2.017.003-3.025.003z" style="fill: rgb(255, 255, 255);"></path></g></g><g class="ldl-layer"><g class="ldl-ani" style="transform-origin: 50px 50px; opacity: 1; animation: fade-01dbdc03-8145-426c-9edb-c5097c5f0df2 2.127659574468085s linear -1.3141426783479349s infinite normal forwards;"><path fill="#fff" d="M94.981 45.502c-13.363 0-26.726-.001-40.09.007-.316 0-.401-.073-.401-.397.011-5.868.008-11.735.008-17.603h3.022c-.006.07-.017.139-.017.209v13.208c0 .08.008.16.015.281.136-.066.249-.12.361-.176 8.135-4.066 16.271-8.129 24.403-12.201.863-.432 1.746-.827 2.578-1.322h3.374c-.122.068-.242.141-.367.204-9.692 4.847-19.385 9.694-29.076 14.542-.114.057-.259.081-.341.228.073.006.12.014.166.014 2.05.001 4.099-.001 6.149.003.209 0 .385-.071.565-.161 9.764-4.883 19.529-9.765 29.293-14.649.1-.05.224-.07.288-.182.145.063.066.19.066.281.006 1.593.004 3.186.004 4.779-.086.033-.175.059-.257.099-6.417 3.207-12.834 6.415-19.25 9.624-.089.044-.174.096-.261.143l.009.06h.332l19.077-.001c.117 0 .233-.011.35-.017v3.027z" style="fill: rgb(255, 255, 255);"></path></g></g><g class="ldl-layer"><g class="ldl-ani" style="transform-origin: 50px 50px; opacity: 1; animation: fade-01dbdc03-8145-426c-9edb-c5097c5f0df2 2.127659574468085s linear -1.3767209011264079s infinite normal forwards;"><path fill="#fff" d="M5.019 54.498c13.363 0 26.726.001 40.09-.007.316 0 .401.073.401.397-.011 5.868-.008 11.735-.008 17.603H42.48c.006-.105.017-.21.017-.314l.001-12.994c0-.4-.001-.4-.361-.22-8.159 4.08-16.317 8.159-24.475 12.241-.844.422-1.704.813-2.522 1.287h-3.303c.036-.121.157-.126.245-.169 2.142-1.074 4.285-2.146 6.428-3.217 7.601-3.8 15.202-7.6 22.801-11.403.08-.04.211-.04.223-.199h-.356c-1.921 0-3.842.004-5.762-.004a1.725 1.725 0 0 0-.804.191c-9.732 4.871-19.467 9.737-29.2 14.606-.112.054-.246.079-.322.194-.145-.063-.066-.19-.066-.281-.006-1.593-.004-3.186-.004-4.779.086-.032.176-.055.258-.096l19.295-9.65c.076-.038.174-.053.237-.181h-.331l-19.145.001c-.105 0-.21.011-.314.017l-.001-3.023z" style="fill: rgb(255, 255, 255);"></path></g></g><g class="ldl-layer"><g class="ldl-ani" style="transform-origin: 50px 50px; opacity: 1; animation: fade-01dbdc03-8145-426c-9edb-c5097c5f0df2 2.127659574468085s linear -1.4392991239048811s infinite normal forwards;"><path fill="#243775" d="M57.52 72.49c-.006-.093-.017-.186-.017-.279V59.108c0-.092.008-.184.012-.277.139-.011.232.07.333.121 8.908 4.452 17.815 8.905 26.72 13.361.101.05.223.072.291.177H57.52z" style="fill: rgb(36, 55, 117);"></path></g></g><g class="ldl-layer"><g class="ldl-ani" style="transform-origin: 50px 50px; opacity: 1; animation: fade-01dbdc03-8145-426c-9edb-c5097c5f0df2 2.127659574468085s linear -1.5018773466833542s infinite normal forwards;"><path fill="#243775" d="M84.86 27.51c-.832.494-1.715.889-2.578 1.322-8.132 4.071-16.268 8.135-24.403 12.201-.112.056-.225.11-.361.176-.007-.121-.015-.201-.015-.281V27.72c0-.07.011-.139.017-.209l27.34-.001z" style="fill: rgb(36, 55, 117);"></path></g></g><g class="ldl-layer"><g class="ldl-ani" style="transform-origin: 50px 50px; opacity: 1; animation: fade-01dbdc03-8145-426c-9edb-c5097c5f0df2 2.127659574468085s linear -1.5644555694618272s infinite normal forwards;"><path fill="#243775" d="M15.14 72.49c.817-.474 1.678-.865 2.522-1.287 8.157-4.082 16.316-8.161 24.475-12.241.36-.18.361-.18.361.22l-.001 12.994c0 .105-.011.209-.017.314H15.14z" style="fill: rgb(36, 55, 117);"></path></g></g><g class="ldl-layer"><g class="ldl-ani" style="transform-origin: 50px 50px; opacity: 1; animation: fade-01dbdc03-8145-426c-9edb-c5097c5f0df2 2.127659574468085s linear -1.6270337922403004s infinite normal forwards;"><path fill="#243775" d="M42.48 27.51c.006.105.017.21.017.314l.001 12.994c0 .399-.001.4-.361.22L15.436 27.686c-.102-.051-.197-.117-.295-.176H42.48z" style="fill: rgb(36, 55, 117);"></path></g></g><g class="ldl-layer"><g class="ldl-ani" style="transform-origin: 50px 50px; opacity: 1; animation: fade-01dbdc03-8145-426c-9edb-c5097c5f0df2 2.127659574468085s linear -1.6896120150187734s infinite normal forwards;"><path fill="#c13d39" d="M5.09 72.49c.076-.116.21-.14.321-.196 9.733-4.869 19.468-9.736 29.2-14.606.258-.129.514-.193.804-.191 1.921.008 3.842.004 5.762.004h.356c-.012.159-.143.159-.223.199-7.599 3.804-15.2 7.603-22.801 11.403-2.143 1.072-4.287 2.143-6.428 3.217-.087.044-.208.048-.245.169l-6.746.001z" style="fill: rgb(193, 61, 57);"></path></g></g><g class="ldl-layer"><g class="ldl-ani" style="transform-origin: 50px 50px; opacity: 1; animation: fade-01dbdc03-8145-426c-9edb-c5097c5f0df2 2.127659574468085s linear -1.7521902377972465s infinite normal forwards;"><path fill="#c13d39" d="M94.91 27.51c-.063.111-.188.132-.288.182-9.764 4.884-19.529 9.766-29.293 14.649-.179.09-.356.161-.565.161-2.05-.004-4.099-.003-6.149-.003-.046 0-.093-.008-.166-.014.082-.147.227-.171.341-.228 9.691-4.849 19.384-9.695 29.076-14.542.125-.063.245-.136.367-.204l6.677-.001z" style="fill: rgb(193, 61, 57);"></path></g></g><g class="ldl-layer"><g class="ldl-ani" style="transform-origin: 50px 50px; opacity: 1; animation: fade-01dbdc03-8145-426c-9edb-c5097c5f0df2 2.127659574468085s linear -1.8147684605757197s infinite normal forwards;"><path fill="#243775" d="M94.981 42.48c-.117.006-.233.017-.35.017l-19.077.001h-.332l-.009-.06c.087-.048.172-.099.261-.143 6.416-3.209 12.833-6.417 19.25-9.624.082-.041.171-.067.257-.099v9.908z" style="fill: rgb(36, 55, 117);"></path></g></g><g class="ldl-layer"><g class="ldl-ani" style="transform-origin: 50px 50px; opacity: 1; animation: fade-01dbdc03-8145-426c-9edb-c5097c5f0df2 2.127659574468085s linear -1.8773466833541927s infinite normal forwards;"><path fill="#243775" d="M5.019 32.57c.076.026.156.044.227.079l19.39 9.695c.051.026.1.056.152.084-.025.11-.112.066-.169.066-6.487.002-12.974.002-19.461.001-.046 0-.093-.011-.139-.016V32.57z" style="fill: rgb(36, 55, 117);"></path></g></g><g class="ldl-layer"><g class="ldl-ani" style="transform-origin: 50px 50px; opacity: 1; animation: fade-01dbdc03-8145-426c-9edb-c5097c5f0df2 2.127659574468085s linear -1.9399249061326658s infinite normal forwards;"><path fill="#243775" d="M5.019 57.52c.105-.006.21-.017.314-.017l19.145-.001h.331c-.063.128-.16.143-.237.181a49558.34 49558.34 0 0 1-19.295 9.65c-.082.041-.172.064-.258.096V57.52z" style="fill: rgb(36, 55, 117);"></path></g></g><g class="ldl-layer"><g class="ldl-ani" style="transform-origin: 50px 50px; opacity: 1; animation: fade-01dbdc03-8145-426c-9edb-c5097c5f0df2 2.127659574468085s linear -2.002503128911139s infinite normal forwards;"><path fill="#243775" d="M94.981 67.43c-.086-.033-.175-.059-.257-.099-6.417-3.207-12.834-6.415-19.25-9.624-.089-.044-.174-.096-.272-.15.101-.087.197-.052.283-.052 6.417-.002 12.835-.002 19.252-.001.081 0 .163.011.244.017v9.909z" style="fill: rgb(36, 55, 117);"></path></g></g><g class="ldl-layer"><g class="ldl-ani" style="transform-origin: 50px 50px; opacity: 1; animation: fade-01dbdc03-8145-426c-9edb-c5097c5f0df2 2.127659574468085s linear -2.065081351689612s infinite normal forwards;"><path fill="#c13d39" d="M94.91 72.49c-.08-.111-.212-.139-.324-.195-9.709-4.857-19.419-9.711-29.129-14.565-.101-.05-.199-.106-.322-.171.103-.084.198-.056.282-.056 1.99-.002 3.981.002 5.971-.005.257-.001.477.075.7.186 7.524 3.765 15.048 7.528 22.573 11.291.104.052.212.095.318.143 0 1.054.002 2.108-.004 3.163.001.065.086.181-.065.209z" style="fill: rgb(193, 61, 57);"></path></g></g><g class="ldl-layer"><g class="ldl-ani" style="transform-origin: 50px 50px; opacity: 1; animation: fade-01dbdc03-8145-426c-9edb-c5097c5f0df2 2.127659574468085s linear -2.127659574468085s infinite normal forwards;"><path fill="#c13d39" d="M5.09 27.51c.459.303.966.514 1.454.758 9.332 4.67 18.667 9.335 28.001 14.001.101.051.2.106.324.172-.103.082-.197.056-.281.056-1.991.002-3.981-.002-5.972.005-.258.001-.477-.077-.7-.188-7.515-3.761-15.03-7.519-22.546-11.277-.114-.057-.234-.103-.351-.155 0-1.055-.002-2.11.004-3.166.001-.064-.084-.18.067-.206z" style="fill: rgb(193, 61, 57);"></path></g></g></g></g></g><metadata xmlns:d="https://loading.io/stock/"><d:name>the united kingdom</d:name><d:tags>the united kingdom,national flag,country,nation symbol</d:tags><d:license>by</d:license><d:slug>hen9tw</d:slug></metadata></g></g><style id="fade-01dbdc03-8145-426c-9edb-c5097c5f0df2" data-anikit="">@keyframes fade-01dbdc03-8145-426c-9edb-c5097c5f0df2
{
  0% {
    animation-timing-function: cubic-bezier(0.2057,0.573,0.3723,0.9184);
    opacity: 1;
  }
  100% {
    opacity: 0;
  }
}</style><!-- [ldio] generated by https://loading.io/ --></svg>